<?xml version="1.0" standalone="no"?>
<!DOCTYPE svg PUBLIC "-//W3C//DTD SVG 20010904//EN"
 "http://www.w3.org/TR/2001/REC-SVG-20010904/DTD/svg10.dtd">
<svg version="1.0" xmlns="http://www.w3.org/2000/svg"
 width="512.000000pt" height="512.000000pt" viewBox="0 0 512.000000 512.000000"
 preserveAspectRatio="xMidYMid meet">

<g transform="translate(0.000000,512.000000) scale(0.100000,-0.100000)"
fill="#ffffff" stroke="none">
<path d="M1225 5109 c-602 -81 -1081 -534 -1202 -1136 -26 -132 -24 -405 5
-535 68 -310 228 -585 454 -779 505 -435 1226 -462 1760 -67 281 208 476 524
545 883 23 121 23 357 -1 485 -103 571 -550 1024 -1118 1135 -99 20 -345 28
-443 14z m396 -174 c595 -110 1019 -618 1019 -1221 0 -333 -125 -631 -364
-870 -239 -239 -537 -364 -870 -364 -605 0 -1111 425 -1222 1025 -25 135 -15
386 19 515 128 475 506 828 977 914 105 19 338 20 441 1z"/>
<path d="M855 4371 c-191 -47 -257 -279 -119 -417 100 -101 258 -94 356 14
119 131 58 346 -113 396 -56 17 -77 18 -124 7z m110 -186 c73 -73 -37 -184
-112 -113 -33 31 -32 90 3 117 36 28 79 27 109 -4z"/>
<path d="M1845 4371 c-112 -28 -189 -126 -189 -241 0 -143 101 -244 244 -244
141 0 244 103 244 244 0 111 -69 203 -175 234 -56 17 -77 18 -124 7z m110
-186 c50 -49 17 -135 -53 -135 -48 0 -82 32 -82 77 0 44 37 83 80 83 19 0 40
-9 55 -25z"/>
<path d="M500 3658 c0 -77 30 -206 69 -298 101 -237 301 -420 553 -506 212
-72 481 -53 681 47 288 146 482 428 504 737 l6 82 -81 0 -80 0 -7 -62 c-10
-98 -42 -204 -88 -292 -58 -113 -190 -245 -303 -303 -144 -75 -296 -103 -443
-83 -161 22 -311 95 -422 205 -135 132 -206 281 -225 468 l-7 67 -78 0 -79 0
0 -62z"/>
<path d="M3003 4436 l-28 -24 0 -201 c0 -261 -14 -244 208 -252 124 -4 173
-10 207 -24 159 -65 275 -198 314 -357 l6 -28 -95 0 c-88 0 -98 -2 -120 -25
-16 -16 -25 -35 -25 -57 0 -29 24 -57 229 -262 215 -215 232 -230 266 -230 33
0 51 15 261 225 123 123 227 234 230 247 8 28 -13 80 -37 92 -10 6 -61 10
-113 10 l-95 0 -6 38 c-24 155 -87 323 -167 440 -46 68 -173 197 -243 247
-123 88 -288 153 -439 174 -42 6 -133 11 -201 11 -117 0 -126 -1 -152 -24z
m452 -176 c194 -62 351 -180 458 -346 78 -121 117 -240 132 -404 9 -92 29
-120 87 -120 21 0 38 -3 38 -7 0 -4 -46 -54 -102 -110 l-103 -103 -102 102
c-57 57 -103 106 -103 110 0 5 18 8 39 8 31 0 44 6 61 28 20 24 22 36 17 102
-6 91 -45 213 -95 295 -54 90 -155 184 -248 232 -107 55 -170 73 -291 80
l-103 6 0 80 0 80 123 -6 c86 -3 142 -11 192 -27z"/>
<path d="M3600 2804 c-357 -42 -640 -175 -875 -409 -205 -206 -334 -453 -391
-750 -24 -121 -24 -356 0 -485 103 -568 530 -1005 1105 -1133 141 -31 413 -30
561 2 559 120 984 553 1097 1118 26 132 24 405 -5 535 -96 437 -364 784 -760
982 -99 50 -257 102 -367 121 -91 16 -300 27 -365 19z m320 -179 c307 -50 597
-228 791 -484 62 -83 148 -251 182 -356 74 -227 77 -500 10 -735 -114 -400
-462 -734 -882 -847 -130 -34 -380 -44 -516 -19 -599 110 -1025 618 -1025
1222 0 335 122 628 364 870 187 188 402 301 661 348 107 19 298 19 415 1z"/>
<path d="M3112 2039 c-58 -29 -109 -92 -128 -158 -31 -104 18 -222 114 -278
40 -24 58 -28 122 -28 64 0 82 4 123 28 114 67 157 210 97 326 -22 45 -80 98
-126 117 -51 22 -151 18 -202 -7z m163 -164 c34 -33 34 -83 0 -115 -68 -64
-169 18 -124 101 22 43 89 50 124 14z"/>
<path d="M4105 2039 c-129 -64 -178 -216 -108 -340 95 -168 325 -171 428 -5
26 43 30 59 30 120 -1 53 -6 81 -22 111 -27 51 -78 100 -125 119 -53 22 -153
20 -203 -5z m160 -164 c44 -43 30 -114 -25 -134 -37 -12 -72 -1 -94 31 -56 79
51 172 119 103z"/>
<path d="M3535 1381 c-293 -80 -499 -303 -550 -596 -23 -135 -28 -125 69 -125
l83 0 6 63 c21 215 176 410 386 483 206 71 437 18 591 -136 100 -99 170 -251
170 -367 l0 -43 86 0 87 0 -7 71 c-17 171 -91 324 -216 449 -96 97 -179 149
-295 187 -110 36 -305 43 -410 14z"/>
<path d="M1125 2140 c-11 -4 -120 -109 -242 -232 -234 -235 -238 -241 -208
-297 19 -38 30 -41 140 -41 l94 0 6 -37 c23 -151 64 -267 140 -398 58 -101
236 -277 338 -334 179 -101 293 -131 522 -138 l171 -6 29 26 30 25 0 201 c0
262 15 244 -208 251 -162 6 -163 6 -240 43 -144 68 -244 189 -281 340 l-6 27
95 0 c88 0 98 2 120 25 16 16 25 35 25 57 0 29 -24 56 -227 260 -227 226 -255
247 -298 228z m235 -402 c0 -5 -18 -8 -39 -8 -31 0 -44 -6 -61 -27 -20 -25
-22 -37 -17 -103 6 -91 45 -213 95 -295 54 -90 155 -184 248 -232 107 -55 170
-73 292 -80 l102 -6 0 -80 0 -80 -122 6 c-219 9 -408 94 -555 250 -135 143
-209 313 -229 527 -8 92 -28 120 -86 120 -21 0 -38 3 -38 7 0 4 46 54 102 110
l103 103 102 -102 c57 -57 103 -106 103 -110z"/>
</g>
</svg>
