<?xml version="1.0" standalone="no"?>
<!DOCTYPE svg PUBLIC "-//W3C//DTD SVG 20010904//EN"
 "http://www.w3.org/TR/2001/REC-SVG-20010904/DTD/svg10.dtd">
<svg version="1.0" xmlns="http://www.w3.org/2000/svg"
 width="650.000000pt" height="650.000000pt" viewBox="0 0 650.000000 650.000000"
 preserveAspectRatio="xMidYMid meet">

<g transform="translate(0.000000,650.000000) scale(0.100000,-0.100000)"
fill="#ffffff" stroke="none">
<path d="M3642 6483 c-47 -23 -89 -67 -118 -125 -67 -132 -181 -453 -191 -538
-5 -39 -2 -50 22 -78 22 -26 34 -32 66 -32 53 0 83 31 104 106 42 151 145 422
184 482 6 10 23 9 87 -7 43 -11 135 -29 204 -40 243 -38 403 -45 1015 -46 540
0 596 -2 665 -19 245 -61 372 -210 455 -536 23 -91 55 -283 55 -330 l0 -23
-137 7 c-291 14 -437 37 -748 115 -177 45 -308 61 -486 61 -544 0 -1049 -160
-1367 -434 -30 -25 -56 -46 -58 -46 -7 0 4 121 27 293 11 82 17 157 14 166
-17 56 -98 81 -150 47 -27 -18 -29 -26 -45 -130 -24 -154 -31 -231 -40 -444
-20 -424 21 -653 171 -957 88 -178 176 -302 314 -440 528 -528 1319 -632 1964
-257 237 137 463 370 604 621 208 369 266 792 168 1221 -16 69 -38 199 -50
288 -78 595 -265 872 -651 964 -93 22 -108 22 -695 23 -384 1 -650 6 -740 14
-173 15 -367 45 -461 71 -85 24 -138 25 -182 3z m1386 -1204 c53 -5 171 -28
262 -50 357 -87 459 -102 774 -115 l163 -7 17 -67 c49 -204 41 -492 -19 -710
-75 -267 -191 -467 -384 -661 -252 -251 -549 -390 -895 -418 -400 -33 -796
105 -1090 380 -266 249 -434 593 -465 950 -11 128 -9 131 107 248 233 232 625
405 1022 450 110 12 396 13 508 0z"/>
<path d="M3947 4716 c-35 -32 -40 -57 -35 -171 3 -95 4 -97 36 -126 36 -33 60
-36 102 -14 44 23 50 43 50 165 0 110 0 112 -29 141 -38 37 -87 39 -124 5z"/>
<path d="M5589 4711 c-29 -29 -29 -31 -29 -141 0 -122 6 -142 50 -165 44 -23
69 -18 107 20 l35 35 -4 116 c-3 113 -4 116 -31 140 -40 34 -90 32 -128 -5z"/>
<path d="M4619 4391 c-46 -46 -41 -93 15 -146 105 -101 287 -101 392 0 56 53
61 100 15 146 -39 39 -83 38 -135 -1 -53 -40 -100 -40 -151 0 -51 40 -96 40
-136 1z"/>
<path d="M3875 4343 c-66 -16 -89 -109 -40 -158 23 -24 28 -25 174 -25 l149 0
26 31 c44 51 26 127 -35 148 -31 11 -234 14 -274 4z"/>
<path d="M5505 4337 c-59 -27 -72 -102 -26 -148 l29 -29 142 0 c82 0 150 5
162 11 26 14 48 67 41 101 -3 14 -16 37 -30 50 -23 21 -34 23 -156 26 -95 1
-140 -2 -162 -11z"/>
<path d="M567 5899 c-129 -31 -228 -89 -332 -194 -74 -73 -98 -106 -133 -176
-70 -145 -72 -162 -72 -748 0 -548 3 -587 48 -701 80 -201 240 -348 458 -421
l69 -23 1168 -3 1168 -4 36 36 c48 48 44 65 -64 260 -49 88 -112 203 -140 255
l-51 95 -5 515 c-4 557 -5 564 -63 703 -81 194 -275 356 -485 407 -80 19 -116
20 -804 19 -676 0 -725 -2 -798 -20z m1558 -184 c175 -45 320 -179 376 -350
10 -30 14 -174 19 -585 l5 -545 112 -205 112 -205 -1032 -3 c-1136 -2 -1084
-5 -1217 60 -77 37 -182 138 -222 214 -56 105 -58 123 -58 679 0 421 3 521 15
568 46 177 194 324 375 371 84 22 1429 23 1515 1z"/>
<path d="M674 5300 c-32 -13 -64 -59 -64 -92 0 -19 10 -40 29 -59 l29 -29 701
0 700 0 28 24 c39 34 39 95 0 134 l-27 27 -688 2 c-378 1 -697 -2 -708 -7z"/>
<path d="M647 4850 c-32 -25 -43 -72 -27 -111 26 -61 4 -59 750 -59 746 0 724
-2 750 59 15 37 6 83 -22 107 -19 18 -55 19 -722 22 -693 2 -703 2 -729 -18z"/>
<path d="M674 4430 c-32 -13 -64 -59 -64 -92 0 -19 10 -40 29 -59 l29 -29 450
0 c437 0 450 1 475 20 55 43 39 137 -26 160 -37 12 -862 13 -893 0z"/>
<path d="M1530 3334 c-223 -27 -394 -75 -575 -165 -171 -84 -298 -173 -425
-299 -126 -124 -184 -202 -184 -246 0 -37 25 -71 63 -86 48 -18 77 0 161 98
282 329 667 508 1095 508 698 -1 1281 -493 1421 -1201 10 -51 16 -95 13 -98
-7 -6 -192 45 -280 79 -329 124 -673 358 -1019 692 -52 51 -108 96 -123 99
-36 9 -49 0 -182 -130 -358 -349 -790 -617 -1154 -715 -42 -11 -84 -23 -93
-26 -14 -4 -18 1 -18 21 0 49 31 180 71 296 21 63 39 130 39 148 0 62 -81 103
-141 71 -47 -26 -125 -261 -154 -465 -22 -148 -21 -1253 0 -1343 45 -189 193
-349 387 -418 43 -15 174 -33 458 -64 301 -32 420 -48 505 -67 125 -27 414
-25 565 5 63 12 279 40 480 63 201 22 385 45 410 51 100 24 191 77 275 162 82
82 114 135 152 246 17 51 18 99 18 690 0 624 0 637 -23 745 -64 307 -206 594
-394 801 -318 349 -718 536 -1173 548 -77 3 -156 2 -175 0z m462 -1145 c219
-175 449 -314 683 -414 113 -48 370 -125 419 -125 18 0 19 -5 12 -96 -40 -578
-435 -1096 -977 -1283 -169 -59 -276 -76 -469 -75 -151 0 -191 4 -290 26 -281
63 -517 193 -720 397 -249 251 -404 588 -426 928 l-7 100 64 12 c409 81 865
341 1292 738 l89 83 116 -107 c64 -59 161 -141 214 -184z m-1626 -1539 c78
-104 234 -258 343 -337 36 -26 -203 12 -264 42 -103 50 -177 137 -209 246 -10
34 -16 92 -16 162 l0 110 53 -84 c29 -46 71 -109 93 -139z m2742 75 c-4 -98
-8 -117 -36 -177 -65 -135 -174 -209 -344 -233 -56 -8 -104 -12 -107 -9 -3 3
10 17 29 32 157 121 300 281 402 448 61 100 62 99 56 -61z"/>
<path d="M779 1661 c-29 -29 -29 -30 -29 -149 l0 -120 31 -26 c51 -43 116 -29
144 31 13 27 16 57 13 135 -3 98 -3 100 -36 129 -43 39 -84 39 -123 0z"/>
<path d="M2441 1676 c-40 -22 -50 -54 -51 -158 0 -113 8 -141 49 -163 45 -23
79 -19 112 14 29 29 29 31 29 146 0 115 0 117 -29 146 -32 32 -70 37 -110 15z"/>
<path d="M1474 1359 c-27 -14 -54 -60 -54 -92 0 -33 40 -81 94 -112 59 -35
132 -47 203 -34 71 13 103 29 148 75 44 44 48 97 11 141 -31 36 -93 39 -129 5
-47 -45 -116 -45 -162 -2 -26 24 -81 34 -111 19z"/>
<path d="M679 1277 c-37 -28 -50 -88 -28 -129 19 -35 70 -48 194 -48 157 0
195 20 195 105 0 25 -8 43 -25 60 -23 24 -28 25 -172 25 -101 -1 -153 -5 -164
-13z"/>
<path d="M2315 1266 c-48 -48 -41 -111 17 -146 28 -17 51 -20 151 -20 132 0
176 13 196 56 18 41 13 74 -18 105 l-29 29 -147 0 c-141 0 -147 -1 -170 -24z"/>
<path d="M4312 2790 c-119 -32 -225 -93 -317 -185 -91 -91 -144 -175 -182
-290 l-27 -80 -5 -535 -6 -535 -109 -195 c-178 -320 -176 -316 -176 -355 0
-44 33 -81 81 -90 19 -3 545 -5 1169 -3 1118 4 1136 4 1200 24 208 67 364 194
450 369 74 151 73 142 78 693 4 529 -1 614 -42 731 -77 219 -267 393 -493 450
-79 20 -104 21 -815 20 -690 0 -737 -1 -806 -19z m1601 -193 c184 -59 328
-223 357 -407 13 -86 13 -955 0 -1040 -15 -94 -66 -195 -138 -271 -63 -67
-119 -104 -219 -142 l-58 -22 -1052 -3 c-769 -2 -1053 0 -1053 8 0 7 48 98
108 203 l107 192 5 545 c5 517 6 548 26 605 54 158 192 292 349 336 54 16 128
18 777 18 l717 1 74 -23z"/>
<path d="M4399 2171 c-29 -29 -38 -76 -23 -116 18 -45 23 -45 753 -45 l689 0
31 26 c51 42 41 118 -19 149 -25 13 -123 15 -715 15 l-687 0 -29 -29z"/>
<path d="M4395 1735 c-27 -26 -34 -80 -15 -116 27 -49 21 -49 745 -49 724 0
718 0 745 49 19 36 12 86 -16 115 l-27 26 -704 0 -704 0 -24 -25z"/>
<path d="M4925 1321 c-66 -28 -79 -105 -27 -152 l32 -29 444 0 444 0 31 26
c40 33 43 89 7 131 l-24 28 -444 2 c-243 1 -452 -2 -463 -6z"/>
</g>
</svg>
