<?xml version="1.0" standalone="no"?>
<!DOCTYPE svg PUBLIC "-//W3C//DTD SVG 20010904//EN"
 "http://www.w3.org/TR/2001/REC-SVG-20010904/DTD/svg10.dtd">
<svg version="1.0" xmlns="http://www.w3.org/2000/svg"
 width="512.000000pt" height="512.000000pt" viewBox="0 0 512.000000 512.000000"
 preserveAspectRatio="xMidYMid meet">

<g transform="translate(0.000000,512.000000) scale(0.100000,-0.100000)"
fill="#ffffff" stroke="none">
<path d="M2330 5110 c-494 -48 -950 -230 -1350 -538 -195 -150 -448 -432 -594
-662 -63 -99 -186 -351 -230 -471 -49 -134 -102 -340 -128 -499 -31 -195 -31
-565 0 -760 45 -276 116 -498 237 -745 132 -269 269 -460 489 -681 221 -220
412 -357 681 -489 247 -121 469 -192 745 -237 195 -31 565 -31 760 0 276 45
498 116 745 237 269 132 460 269 681 489 220 221 357 412 489 681 88 179 132
296 180 476 63 240 78 371 78 649 0 278 -15 409 -78 649 -48 180 -92 297 -180
476 -132 269 -269 460 -489 681 -221 220 -412 357 -681 489 -246 121 -474 193
-740 235 -147 23 -475 34 -615 20z m468 -401 c488 -53 934 -270 1288 -623 415
-415 634 -943 634 -1526 0 -583 -219 -1111 -634 -1526 -415 -415 -943 -634
-1526 -634 -583 0 -1111 219 -1526 634 -415 415 -634 943 -634 1526 0 583 219
1111 634 1526 349 349 800 569 1276 623 110 12 376 13 488 0z"/>
<path d="M1253 2936 c-281 -91 -368 -445 -161 -656 151 -154 403 -154 556 -1
191 191 137 514 -107 634 -57 28 -77 32 -156 34 -55 2 -106 -3 -132 -11z"/>
<path d="M2419 2927 c-102 -43 -173 -110 -216 -204 -109 -237 36 -509 295
-554 209 -37 418 115 450 326 27 172 -61 341 -217 418 -58 28 -77 32 -161 35
-81 2 -103 -1 -151 -21z"/>
<path d="M3609 2927 c-70 -29 -105 -54 -154 -108 -137 -152 -130 -393 17 -540
153 -153 405 -153 556 1 190 193 136 513 -106 632 -57 29 -77 33 -161 36 -83
2 -104 -1 -152 -21z"/>
</g>
</svg>
