<?xml version="1.0" standalone="no"?>
<!DOCTYPE svg PUBLIC "-//W3C//DTD SVG 20010904//EN"
 "http://www.w3.org/TR/2001/REC-SVG-20010904/DTD/svg10.dtd">
<svg version="1.0" xmlns="http://www.w3.org/2000/svg"
 width="512.000000pt" height="512.000000pt" viewBox="0 0 512.000000 512.000000"
 preserveAspectRatio="xMidYMid meet">

<g transform="translate(0.000000,512.000000) scale(0.100000,-0.100000)"
fill="#ffffff" stroke="none">
<path d="M2101 5100 c-206 -54 -379 -234 -421 -436 -18 -84 -8 -245 18 -318
42 -115 77 -157 474 -553 l388 -388 380 380 c210 209 397 405 418 435 59 89
84 169 89 290 6 125 -10 199 -65 305 -140 268 -492 381 -763 246 l-60 -30 -60
30 c-119 59 -265 73 -398 39z m264 -309 c26 -11 79 -52 121 -93 l74 -71 73 70
c39 39 91 80 114 91 131 67 293 16 370 -115 20 -34 27 -63 31 -119 8 -126 -10
-152 -320 -462 l-263 -262 -277 272 c-184 183 -282 286 -294 313 -29 64 -31
171 -4 234 28 64 101 131 167 154 61 21 144 16 208 -12z"/>
<path d="M1220 3490 c-695 -148 -1019 -940 -626 -1528 48 -72 137 -169 200
-219 l38 -31 -73 -35 c-156 -72 -290 -167 -414 -292 -183 -186 -304 -430 -335
-677 -5 -46 -10 -223 -10 -395 l0 -313 2561 0 2561 0 -5 333 c-4 296 -6 341
-25 412 -80 307 -286 560 -583 718 -36 18 -70 36 -77 38 -6 2 25 43 71 90 177
184 258 405 244 662 -7 132 -25 202 -78 315 -97 209 -269 372 -479 455 -160
63 -366 75 -534 33 -395 -101 -666 -449 -666 -856 0 -235 80 -434 245 -608
l81 -85 -75 -39 c-179 -95 -340 -235 -438 -381 l-52 -78 -32 63 c-127 251
-355 470 -625 598 l-81 39 106 108 c122 124 184 220 235 364 47 131 60 222 53
381 -6 163 -29 255 -97 393 -170 345 -511 556 -895 554 -66 0 -144 -8 -195
-19z m345 -295 c225 -47 433 -232 510 -452 37 -105 45 -266 20 -378 -62 -281
-297 -495 -588 -536 -345 -48 -684 187 -763 528 -21 93 -19 241 5 336 52 202
213 386 405 464 128 52 277 66 411 38z m2427 -426 c29 -6 90 -28 135 -50 138
-66 247 -193 299 -349 28 -82 26 -252 -3 -345 -54 -173 -205 -324 -378 -378
-98 -31 -252 -31 -350 0 -169 53 -317 198 -375 366 -27 80 -37 216 -21 299 7
35 31 101 53 147 71 148 219 268 380 307 67 16 191 17 260 3z m-2312 -1274
c158 -35 314 -100 443 -186 92 -62 234 -211 291 -307 93 -157 126 -302 126
-564 l0 -138 -1120 0 -1120 0 0 153 c1 183 11 266 44 372 94 297 381 552 726
647 135 37 226 48 385 43 84 -2 183 -11 225 -20z m2320 -185 c162 -20 343 -86
467 -171 108 -74 215 -194 270 -304 60 -118 75 -185 80 -367 l6 -168 -953 0
-953 0 6 167 c6 187 18 247 74 358 46 91 87 146 165 221 214 204 525 302 838
264z"/>
</g>
</svg>
